<?xml version="1.0" standalone="no"?><!DOCTYPE svg PUBLIC "-//W3C//DTD SVG 1.1//EN" "http://www.w3.org/Graphics/SVG/1.1/DTD/svg11.dtd"><svg t="1701509620355" class="icon" viewBox="0 0 1024 1024" version="1.1" xmlns="http://www.w3.org/2000/svg" p-id="2281" xmlns:xlink="http://www.w3.org/1999/xlink" width="200" height="200"><path d="M618.45 614.62m-226.39 0a226.39 226.39 0 1 0 452.78 0 226.39 226.39 0 1 0-452.78 0Z" fill="#FFE6E6" p-id="2282"></path><path d="M813.69 847H209.8a35 35 0 0 1-35-35V208.06a35 35 0 0 1 35-35h603.89a35 35 0 0 1 35 35V812a35 35 0 0 1-35 35zM244.8 777h533.89V243.06H244.8z" fill="#333333" p-id="2283"></path><path d="M337.24 475h349v70h-349z" fill="#333333" p-id="2284"></path><path d="M476.74 335.5h70v349h-70z" fill="#333333" p-id="2285"></path></svg>